<svg viewBox="0 0 48 48" xmlns="http://www.w3.org/2000/svg"><path d="M24 4C12.95 4 4 12.95 4 24c0 8.84 5.73 16.41 13.69 19.08 1 .18 1.37-.44 1.37-1v-3.61c-5.57 1.21-6.75-2.68-6.75-2.68-.91-2.31-2.22-2.93-2.22-2.93-1.81-1.24.14-1.22.14-1.22 2 .14 3.06 2.06 3.06 2.06 1.78 3.05 4.67 2.17 5.81 1.66.18-1.29.69-2.17 1.26-2.67-4.44-.5-9.1-2.22-9.1-9.87 0-2.18.78-3.96 2.06-5.35-.21-.5-.89-2.53.2-5.28 0 0 1.67-.54 5.46 2.04 1.59-.44 3.28-.66 4.97-.67 1.7.01 3.39.23 4.97.67 3.79-2.58 5.45-2.04 5.45-2.04 1.09 2.75.41 4.78.2 5.28 1.28 1.39 2.06 3.17 2.06 5.35 0 7.67-4.67 9.37-9.13 9.87.72.62 1.36 1.82 1.36 3.67v5.51c0 .56.37 1.18 1.38 1 .94.18 1.94.28 3 .28 7.95 0 16.91-8.95 16.91-20 0-11.04-8.96-19.99-20-19.99z" fill="#24292e"/></svg>