<svg viewBox="0 0 48 48" xmlns="http://www.w3.org/2000/svg"><path d="M45.12 24.5c0-1.56-.14-3.06-.4-4.5H24v8.51h11.84c-.51 2.75-2.06 5.08-4.39 6.64v5.52h7.11c4.16-3.83 6.56-9.47 6.56-16.17z" fill="#4285f4"/><path d="M24 46c5.94 0 10.92-1.97 14.56-5.33l-7.11-5.52c-1.97 1.32-4.49 2.1-7.45 2.1-5.73 0-10.58-3.87-12.31-9.09H4.34v5.7C7.96 40.71 15.36 46 24 46z" fill="#34a853"/><path d="M11.69 28.16c-.45-1.32-.7-2.71-.7-4.16s.25-2.84.7-4.16v-5.7H4.34C2.85 17.55 2 20.68 2 24c0 3.32.85 6.45 2.34 9.09l7.35-5.93z" fill="#fbbc05"/><path d="M24 10.78c3.24 0 6.13 1.11 8.41 3.29l6.31-6.31C34.91 4.18 30.03 2 24 2 15.36 2 7.96 7.29 4.34 14.56l7.35 5.7c1.73-5.22 6.58-9.09 12.31-9.09z" fill="#ea4335"/></svg>